<?xml version="1.0" standalone="no"?>
<!DOCTYPE svg PUBLIC "-//W3C//DTD SVG 20010904//EN"
 "http://www.w3.org/TR/2001/REC-SVG-20010904/DTD/svg10.dtd">
<svg version="1.0" xmlns="http://www.w3.org/2000/svg"
 width="1024.000000pt" height="1024.000000pt" viewBox="0 0 1024.000000 1024.000000"
 preserveAspectRatio="xMidYMid meet">

<g transform="translate(0.000000,1024.000000) scale(0.100000,-0.100000)"
fill="#000000" stroke="none">
<path d="M0 5120 l0 -5120 5120 0 5120 0 0 5120 0 5120 -5120 0 -5120 0 0
-5120z m6868 4045 c-2 -3 -794 -6 -1759 -6 -1748 -2 -2044 -6 -2234 -29 -708
-85 -1233 -424 -1519 -980 -137 -267 -195 -498 -215 -853 -7 -119 -8 -124 -9
-46 -4 180 40 455 100 639 110 337 330 649 605 857 339 258 732 386 1262 412
168 9 3778 14 3769 6z m55 -2 c-7 -2 -21 -2 -30 0 -10 3 -4 5 12 5 17 0 24 -2
18 -5z m220 -10 c-29 -2 -78 -2 -110 0 -32 2 -8 3 52 3 61 0 87 -1 58 -3z
m155 -10 c-15 -2 -42 -2 -60 0 -18 2 -6 4 27 4 33 0 48 -2 33 -4z m137 -13
c31 -7 24 -7 -30 -3 -38 3 -72 7 -74 9 -8 7 64 3 104 -6z m88 -17 c-7 -2 -21
-2 -30 0 -10 3 -4 5 12 5 17 0 24 -2 18 -5z m50 -10 c-7 -2 -19 -2 -25 0 -7 3
-2 5 12 5 14 0 19 -2 13 -5z m50 -10 c-7 -2 -19 -2 -25 0 -7 3 -2 5 12 5 14 0
19 -2 13 -5z m77 -13 c20 -6 21 -8 5 -8 -11 0 -31 4 -45 8 -20 6 -21 8 -5 8
11 0 31 -4 45 -8z m57 -16 c-3 -3 -12 -4 -19 -1 -8 3 -5 6 6 6 11 1 17 -2 13
-5z m100 -30 c-3 -3 -12 -4 -19 -1 -8 3 -5 6 6 6 11 1 17 -2 13 -5z m43 -14
c8 -5 11 -10 5 -10 -5 0 -17 5 -25 10 -8 5 -10 10 -5 10 6 0 17 -5 25 -10z
m-3099 -374 c5 3 118 7 252 8 260 2 363 -3 542 -30 22 -3 54 -8 70 -10 65 -9
200 -37 205 -42 3 -3 -13 -2 -35 2 -172 30 -255 42 -255 37 0 -3 62 -16 138
-28 601 -98 1158 -356 1626 -752 557 -471 951 -1137 1100 -1861 51 -251 69
-424 69 -695 0 -258 -11 -384 -54 -625 -156 -884 -683 -1687 -1438 -2194 -460
-309 -948 -491 -1506 -562 -190 -25 -595 -25 -779 -1 -418 56 -776 166 -1141
352 -381 195 -624 372 -917 673 -378 388 -645 842 -806 1367 -197 643 -197
1367 0 1983 44 138 124 345 163 423 28 54 32 74 10 45 -25 -33 -17 -10 30 86
50 105 87 172 107 196 8 9 31 46 53 82 46 77 44 75 50 68 3 -3 -21 -48 -55
-99 -33 -51 -60 -98 -60 -104 0 -5 16 16 35 48 20 33 53 85 75 117 22 33 40
63 40 67 0 4 -5 0 -11 -10 -6 -9 -14 -15 -20 -12 -7 5 39 76 62 95 3 3 13 19
22 35 8 17 31 48 51 70 20 21 36 45 36 52 0 7 4 12 9 11 5 -2 20 11 33 28 51
68 288 321 288 307 0 -4 17 12 37 35 20 23 41 42 46 42 5 0 17 8 26 18 25 27
113 98 172 139 30 20 56 39 59 42 3 4 22 15 43 26 20 11 37 22 37 25 0 4 19
17 43 30 23 13 57 34 75 48 17 13 32 21 32 17 0 -3 12 3 26 14 32 25 340 177
378 187 14 3 29 10 32 15 3 5 14 9 25 9 10 0 19 4 19 8 0 4 9 8 19 9 10 1 41
10 68 21 39 16 142 49 176 58 4 1 10 3 15 4 4 1 12 3 17 4 6 1 34 9 64 19 29
9 57 14 62 11 5 -3 9 -1 9 4 0 5 6 9 13 9 23 1 202 35 209 39 4 3 29 7 55 10
27 3 55 8 63 11 8 3 49 7 90 10 44 3 77 10 79 16 3 9 6 8 9 -1 2 -6 8 -10 13
-6z m-3667 -1501 c-4 -8 -8 -15 -10 -15 -2 0 -4 7 -4 15 0 8 4 15 10 15 5 0 7
-7 4 -15z m-7 -3043 c-1 -554 -2 -100 -2 1008 0 1108 1 1562 2 1007 2 -554 2
-1460 0 -2015z m879 2551 c-14 -26 -25 -43 -26 -37 0 15 41 97 46 91 3 -3 -6
-27 -20 -54z m-35 -80 c-12 -20 -14 -14 -5 12 4 9 9 14 11 11 3 -2 0 -13 -6
-23z m-56 -143 c-24 -63 -44 -109 -45 -102 0 17 81 225 86 220 1 -2 -17 -55
-41 -118z m-60 -170 c-7 -25 -14 -38 -14 -29 -1 18 20 82 25 77 2 -2 -3 -24
-11 -48z m-24 -81 c-5 -13 -10 -19 -10 -12 -1 15 10 45 15 40 3 -2 0 -15 -5
-28z m-14 -51 c-3 -8 -6 -5 -6 6 -1 11 2 17 5 13 3 -3 4 -12 1 -19z m-30 -120
c-3 -8 -6 -5 -6 6 -1 11 2 17 5 13 3 -3 4 -12 1 -19z m-10 -60 c-3 -8 -6 -5
-6 6 -1 11 2 17 5 13 3 -3 4 -12 1 -19z m-16 -74 c-5 -21 -9 -30 -10 -19 -1
24 10 67 15 62 3 -2 0 -22 -5 -43z m-14 -91 c-3 -10 -5 -4 -5 12 0 17 2 24 5
18 2 -7 2 -21 0 -30z m-10 -55 c-3 -8 -6 -5 -6 6 -1 11 2 17 5 13 3 -3 4 -12
1 -19z m-600 -2770 c-2 -18 -4 -4 -4 32 0 36 2 50 4 33 2 -18 2 -48 0 -65z
m10 -115 c-3 -10 -5 -2 -5 17 0 19 2 27 5 18 2 -10 2 -26 0 -35z m10 -75 c-3
-7 -5 -2 -5 12 0 14 2 19 5 13 2 -7 2 -19 0 -25z m10 -60 c-3 -8 -6 -5 -6 6
-1 11 2 17 5 13 3 -3 4 -12 1 -19z"/>
<path d="M5403 8623 c15 -2 39 -2 55 0 15 2 2 4 -28 4 -30 0 -43 -2 -27 -4z"/>
<path d="M5508 8613 c12 -2 32 -2 45 0 12 2 2 4 -23 4 -25 0 -35 -2 -22 -4z"/>
<path d="M5378 8513 c12 -2 30 -2 40 0 9 3 -1 5 -23 4 -22 0 -30 -2 -17 -4z"/>
<path d="M5483 8503 c9 -2 25 -2 35 0 9 3 1 5 -18 5 -19 0 -27 -2 -17 -5z"/>
<path d="M5578 8493 c6 -2 18 -2 25 0 6 3 1 5 -13 5 -14 0 -19 -2 -12 -5z"/>
<path d="M5643 8483 c9 -2 23 -2 30 0 6 3 -1 5 -18 5 -16 0 -22 -2 -12 -5z"/>
<path d="M5708 8473 c6 -2 18 -2 25 0 6 3 1 5 -13 5 -14 0 -19 -2 -12 -5z"/>
<path d="M5768 8463 c7 -3 16 -2 19 1 4 3 -2 6 -13 5 -11 0 -14 -3 -6 -6z"/>
<path d="M5818 8453 c7 -3 16 -2 19 1 4 3 -2 6 -13 5 -11 0 -14 -3 -6 -6z"/>
<path d="M5858 8443 c6 -2 18 -2 25 0 6 3 1 5 -13 5 -14 0 -19 -2 -12 -5z"/>
<path d="M5170 8432 c0 -10 -11 -12 -41 -8 -22 3 -49 1 -59 -4 -12 -6 -21 -7
-25 0 -4 6 -15 6 -30 0 -18 -7 -25 -6 -25 2 0 7 -6 4 -12 -5 -15 -20 -78 -29
-96 -14 -10 8 -16 7 -23 -4 -7 -11 -9 -11 -9 4 0 10 -5 15 -10 12 -6 -4 -7
-12 -3 -18 5 -9 3 -9 -8 0 -12 10 -18 9 -29 -7 -10 -14 -17 -16 -27 -8 -7 6
-13 7 -13 3 0 -4 -8 -1 -17 6 -15 12 -16 12 -10 -4 4 -12 3 -16 -4 -11 -6 4
-16 0 -21 -7 -8 -11 -9 -10 -4 4 7 22 -1 22 -41 -3 -22 -13 -33 -16 -33 -7 0
8 -3 8 -9 -2 -13 -20 -70 -21 -63 -1 5 13 4 13 -10 0 -9 -8 -14 -18 -13 -21 2
-3 -16 -5 -41 -4 -24 0 -44 -2 -44 -6 0 -13 -47 -27 -63 -17 -12 6 -17 5 -17
-3 0 -6 -7 -9 -15 -5 -8 3 -19 -2 -24 -12 -6 -10 -11 -12 -11 -4 0 10 -5 10
-20 2 -11 -6 -20 -7 -20 -3 0 4 -5 2 -12 -5 -15 -15 -32 -16 -23 -2 3 6 1 10
-4 10 -6 0 -11 -5 -11 -11 0 -5 -4 -8 -9 -4 -5 3 -12 1 -16 -4 -3 -6 -12 -8
-20 -4 -11 4 -13 1 -9 -11 3 -9 2 -16 -4 -16 -6 0 -13 6 -15 13 -4 9 -6 9 -6
-1 -1 -7 -5 -10 -11 -7 -5 3 -10 1 -10 -6 0 -8 -5 -7 -17 2 -11 10 -14 10 -9
2 4 -7 4 -13 -1 -14 -4 0 -17 -2 -28 -4 -10 -2 -26 2 -35 8 -13 11 -13 10 -1
-5 12 -16 11 -18 -3 -18 -11 0 -15 -5 -10 -12 5 -10 4 -10 -7 0 -11 10 -16 8
-27 -10 l-13 -23 5 25 c3 14 3 19 0 12 -3 -6 -11 -9 -17 -5 -6 4 -8 0 -4 -9 4
-11 -1 -18 -14 -21 -10 -3 -17 -1 -13 4 3 5 0 9 -5 9 -6 0 -11 -6 -11 -12 0
-9 -4 -8 -10 2 -6 10 -10 11 -10 3 0 -7 -6 -13 -14 -13 -8 0 -18 -5 -22 -12
-5 -7 -3 -8 6 -3 8 5 11 4 6 -3 -4 -6 -13 -9 -21 -5 -8 3 -15 1 -15 -5 0 -6
-14 -15 -31 -21 -40 -14 -42 -14 -33 2 4 7 3 9 -2 4 -5 -5 -10 -13 -10 -18 -3
-22 -5 -23 -14 -9 -7 11 -10 11 -10 2 0 -7 -5 -10 -12 -6 -7 4 -8 3 -4 -5 7
-11 -11 -23 -42 -25 -10 -1 -38 -12 -64 -24 -26 -12 -52 -22 -57 -22 -6 0 -16
-9 -23 -19 -9 -15 -15 -17 -25 -9 -11 8 -12 7 -6 -8 6 -17 5 -18 -12 -4 -15
12 -17 12 -10 1 6 -11 4 -13 -8 -8 -9 3 -19 2 -22 -3 -4 -6 0 -10 7 -10 10 0
10 -2 -1 -9 -8 -5 -20 -7 -28 -4 -9 4 -16 -3 -20 -16 -3 -11 -9 -18 -14 -15
-5 3 -9 0 -9 -7 0 -6 -8 -9 -20 -6 -13 3 -18 1 -13 -6 4 -6 0 -8 -11 -4 -12 5
-22 -3 -37 -28 -12 -20 -29 -35 -40 -35 -10 0 -24 -9 -31 -20 -16 -24 -30 -26
-21 -3 5 11 -3 8 -23 -10 -22 -21 -26 -29 -16 -36 11 -7 10 -9 -3 -14 -9 -4
-13 -3 -10 3 9 15 -4 12 -20 -4 -8 -7 -11 -17 -7 -21 4 -5 -1 -5 -10 -2 -12 4
-18 1 -18 -8 0 -14 -12 -19 -32 -16 -5 0 -8 -6 -8 -15 0 -10 -6 -14 -15 -11
-18 7 -30 -9 -13 -17 7 -4 3 -4 -9 -2 -26 5 -29 -3 -10 -23 10 -11 9 -12 -8
-3 -16 9 -22 6 -37 -19 -11 -18 -23 -27 -30 -23 -8 5 -9 2 -5 -9 5 -12 1 -17
-13 -17 -11 0 -21 -6 -21 -12 -1 -7 -2 -20 -3 -28 0 -8 -8 -15 -16 -15 -8 0
-24 -9 -35 -21 -12 -11 -27 -18 -34 -16 -10 3 -12 -1 -8 -12 4 -9 3 -15 -2
-11 -5 3 -18 -6 -29 -20 -11 -13 -22 -21 -26 -18 -3 3 -6 -1 -6 -10 0 -9 -4
-18 -10 -18 -5 -1 -15 -2 -22 -3 -6 0 -13 -8 -15 -16 -4 -13 -3 -13 6 0 9 13
11 13 11 -2 0 -12 -8 -18 -21 -18 -11 0 -17 -4 -14 -10 3 -5 1 -10 -5 -10 -7
0 -9 -7 -6 -16 3 -8 2 -12 -4 -9 -6 3 -10 1 -10 -4 0 -6 -9 -11 -19 -11 -13 0
-21 -9 -26 -30 -4 -16 -12 -28 -18 -27 -7 1 -11 -4 -9 -10 1 -7 -2 -13 -7 -13
-6 0 -8 -9 -6 -21 4 -18 2 -19 -11 -8 -13 10 -17 10 -25 -2 -5 -8 -9 -17 -9
-22 0 -4 -3 -6 -7 -5 -5 2 -9 -1 -10 -6 -1 -5 -7 -13 -15 -18 -10 -8 -10 -9 2
-5 8 2 14 9 13 15 -2 7 4 9 13 5 13 -5 11 -9 -10 -22 -14 -9 -26 -19 -26 -24
0 -4 -5 -5 -12 -1 -6 4 -9 3 -5 -2 6 -11 -18 -59 -30 -59 -4 0 -7 -3 -5 -7 1
-5 -3 -8 -9 -8 -5 0 -8 -4 -5 -9 6 -10 -25 -53 -64 -90 -14 -13 -19 -20 -12
-17 6 4 12 2 12 -5 0 -7 -8 -9 -21 -6 -17 4 -19 3 -10 -6 13 -13 15 -28 4 -26
-20 3 -27 -2 -14 -10 15 -10 7 -31 -12 -31 -7 0 -6 4 3 10 8 5 10 10 4 10 -18
0 -24 -13 -12 -27 8 -11 7 -12 -5 -8 -8 4 -18 1 -23 -6 -4 -8 -3 -10 4 -5 17
10 15 -5 -3 -18 -8 -6 -16 -22 -18 -35 -2 -14 -9 -27 -15 -29 -6 -2 -8 -10 -5
-18 4 -10 0 -12 -13 -7 -17 6 -17 5 -5 -10 11 -14 11 -18 -2 -23 -8 -3 -18
-17 -22 -32 -4 -15 -11 -30 -17 -33 -10 -6 -14 -24 -17 -66 -1 -7 -7 -12 -13
-10 -7 1 -13 -5 -13 -13 0 -8 -6 -19 -12 -23 -7 -4 -13 -19 -13 -32 0 -14 -5
-23 -12 -21 -7 1 -10 1 -6 -1 12 -7 10 -28 -6 -58 -9 -18 -16 -22 -20 -13 -3
7 -4 2 -3 -12 1 -14 -5 -31 -13 -38 -8 -8 -10 -11 -5 -9 6 3 10 -5 10 -18 0
-13 -2 -22 -5 -20 -10 6 -26 -29 -25 -56 1 -18 -3 -25 -12 -22 -9 4 -11 0 -7
-11 3 -9 1 -16 -6 -16 -6 0 -9 -4 -5 -9 3 -5 -2 -16 -10 -24 -20 -20 -19 -28
3 -21 9 3 6 -2 -8 -10 -14 -8 -19 -15 -11 -16 11 0 11 -3 1 -15 -6 -8 -9 -18
-6 -23 3 -5 -2 -22 -10 -38 -9 -16 -14 -41 -12 -55 3 -17 0 -25 -7 -23 -7 3
-11 -4 -10 -18 1 -13 -3 -29 -9 -37 -8 -11 -8 -13 2 -7 6 4 12 3 12 -3 0 -5
-4 -11 -10 -13 -5 -1 -12 -16 -14 -33 -8 -56 -17 -89 -27 -101 -6 -8 -6 -13 0
-16 7 -2 6 -13 -3 -30 -10 -19 -11 -30 -4 -34 7 -4 6 -9 -2 -14 -9 -6 -9 -13
-1 -29 8 -13 8 -21 1 -21 -5 0 -10 -10 -10 -22 0 -13 -4 -54 -9 -93 -8 -60 -9
-51 -5 65 5 146 22 288 55 443 11 55 18 101 16 103 -6 7 -45 -185 -62 -306
-87 -634 4 -1243 275 -1842 159 -352 356 -633 650 -929 188 -190 311 -291 525
-431 239 -157 519 -293 790 -385 355 -120 646 -166 1035 -166 534 1 989 109
1470 351 143 72 325 181 316 189 -3 3 -17 -4 -33 -14 -35 -25 -73 -45 -73 -39
0 11 101 65 113 60 32 -12 364 253 541 431 158 159 406 466 405 500 0 6 -8 -1
-17 -14 -34 -50 -53 -65 -22 -19 17 26 36 47 41 45 29 -6 254 418 337 633 91
236 162 520 199 795 24 181 24 600 -1 775 -74 535 -243 994 -521 1415 -385
583 -975 1035 -1651 1263 -127 43 -284 86 -290 79 -2 -2 40 -15 93 -30 115
-30 336 -107 329 -114 -3 -3 -24 2 -48 11 -23 10 -55 19 -70 21 -15 2 -37 7
-49 10 -14 5 -19 4 -15 -4 5 -7 1 -9 -8 -5 -9 3 -16 12 -16 20 0 8 -5 14 -11
14 -5 0 -8 -4 -5 -9 8 -12 -35 -1 -53 13 -18 14 -54 15 -63 1 -5 -6 -8 -6 -8
3 0 6 -5 12 -11 12 -5 0 -7 -5 -3 -11 3 -6 -5 -3 -20 6 -15 10 -29 15 -33 11
-3 -3 -13 0 -21 7 -12 9 -16 9 -19 0 -4 -10 -12 -9 -35 3 -24 13 -32 13 -46 2
-10 -8 -13 -9 -9 -1 5 7 1 12 -10 11 -29 0 -79 8 -92 16 -6 4 -11 1 -11 -9 0
-15 -1 -15 -16 -1 -18 18 -28 21 -18 5 4 -7 -1 -7 -16 1 -28 15 -83 22 -75 10
9 -15 -5 -12 -21 4 -10 11 -22 12 -44 6 -20 -6 -30 -5 -30 2 0 6 -6 6 -15 -2
-12 -10 -15 -10 -15 1 0 10 -2 11 -8 2 -5 -8 -21 -9 -49 -3 -23 4 -40 3 -37
-1 3 -5 -2 -6 -12 -2 -26 10 -78 10 -98 0 -14 -7 -16 -6 -11 4 6 8 4 10 -5 4
-19 -12 -54 -12 -62 0 -5 6 -8 5 -8 -3z m1250 -167 c14 -8 21 -14 15 -14 -5 0
-21 6 -35 14 -14 8 -20 14 -15 14 6 0 21 -6 35 -14z m-3080 -401 c0 -8 -5 -12
-10 -9 -6 4 -8 11 -5 16 9 14 15 11 15 -7z m1924 -174 c174 -66 296 -244 296
-434 0 -129 -38 -224 -126 -316 -152 -159 -372 -183 -560 -62 -240 155 -274
503 -70 708 123 122 302 163 460 104z m-1523 -200 c4 -14 7 -302 8 -641 1
-515 -1 -618 -13 -628 -9 -8 -59 -11 -152 -9 -136 3 -139 3 -151 28 -11 20
-13 152 -11 638 3 598 3 614 23 628 15 11 49 14 154 12 135 -3 135 -3 142 -28z
m3050 20 c18 -10 19 -28 19 -643 0 -479 -3 -636 -12 -645 -15 -15 -244 -17
-281 -3 l-25 10 5 633 c2 348 6 639 8 646 5 15 257 17 286 2z m-3423 -642 l-3
-493 -105 -3 c-90 -2 -107 0 -117 15 -10 13 -13 124 -13 488 0 260 3 475 7
478 3 4 57 7 120 7 l113 0 -2 -492z m3740 3 c2 -381 0 -486 -10 -493 -7 -4
-59 -8 -115 -8 -100 0 -103 1 -103 23 0 12 0 231 -1 487 -1 256 -1 469 0 473
1 4 52 6 114 5 l112 -3 3 -484z m-4038 163 c13 -34 13 -310 0 -335 -12 -21
-59 -26 -91 -9 -18 10 -19 23 -19 175 0 90 3 170 6 179 4 11 19 16 50 16 39 0
46 -3 54 -26z m4195 -159 l0 -180 -27 -9 c-18 -7 -35 -6 -53 2 l-25 12 0 173
c0 96 3 177 7 181 4 4 28 6 53 4 l45 -3 0 -180z m-3063 165 c20 -6 48 -24 63
-41 21 -25 24 -38 19 -65 l-6 -34 179 0 179 0 52 -60 53 -60 -249 0 -250 0 -6
-32 c-3 -18 -12 -89 -21 -158 -9 -69 -18 -131 -20 -138 -6 -16 -10 -18 139 81
162 108 217 132 364 158 l122 22 62 -28 c166 -74 332 -74 480 1 l52 26 105
-17 c148 -24 209 -50 366 -155 75 -50 142 -93 149 -96 10 -4 11 6 4 48 -5 29
-16 105 -26 168 l-17 115 -248 5 -249 5 27 25 c14 13 35 39 46 57 l21 33 184
0 184 0 0 41 c0 53 14 78 55 95 100 41 230 -14 250 -106 7 -30 7 -30 76 -30
l69 0 0 -60 0 -60 -61 0 c-58 0 -61 -1 -56 -22 13 -50 58 -346 72 -468 12
-101 13 -140 4 -172 -22 -84 -112 -137 -209 -124 -25 3 -138 44 -251 90 l-207
83 -73 -280 c-42 -162 -81 -289 -92 -303 l-18 -24 -399 0 -399 0 -18 24 c-11
14 -50 142 -92 303 l-73 279 -207 -83 c-237 -95 -293 -107 -363 -75 -25 11
-58 36 -74 58 -27 35 -29 43 -27 123 1 76 22 232 67 509 l13 82 -59 0 -59 0 3
58 3 57 62 3 62 3 11 38 c23 85 126 130 232 101z m-2355 -1712 c-3 -8 -6 -5
-6 6 -1 11 2 17 5 13 3 -3 4 -12 1 -19z m4732 -2 c12 -11 21 -28 21 -38 0 -10
-42 -114 -94 -231 -110 -249 -496 -1176 -831 -2000 -72 -177 -21 -161 -543
-165 -427 -3 -434 -2 -468 19 -19 11 -41 33 -48 47 -8 15 -93 221 -191 457
-264 642 -673 1602 -759 1785 -30 64 -33 96 -9 122 15 17 40 18 365 18 221 0
356 -4 369 -10 10 -6 25 -23 33 -38 21 -41 141 -354 421 -1101 139 -370 258
-678 264 -684 8 -8 14 -8 22 0 6 6 60 141 121 299 166 438 387 1024 473 1259
43 116 88 225 102 242 l24 33 167 3 c92 2 251 3 353 3 169 -1 189 -3 208 -20z
m-4732 -188 c-2 -13 -4 -5 -4 17 -1 22 1 32 4 23 2 -10 2 -28 0 -40z m6 -82
c3 -30 1 -43 -4 -35 -8 13 -13 97 -5 88 2 -2 6 -26 9 -53z m4 -113 c-3 -10 -5
-2 -5 17 0 19 2 27 5 18 2 -10 2 -26 0 -35z m5917 -1610 c-145 -194 -311 -375
-472 -515 -138 -121 -346 -278 -368 -278 -7 0 26 27 77 60 50 34 114 84 117
92 2 4 8 8 14 8 5 0 15 6 23 13 7 6 37 32 66 57 178 149 355 334 513 538 52
66 77 87 30 25z m-984 -887 c0 -2 -7 -7 -16 -10 -8 -3 -12 -2 -9 4 6 10 25 14
25 6z m-71 -40 c-2 -2 -15 -9 -29 -15 -24 -11 -24 -11 -6 3 16 13 49 24 35 12z
m-79 -41 c0 -3 -27 -18 -60 -35 -33 -17 -60 -28 -60 -25 0 2 26 18 58 34 64
34 62 33 62 26z"/>
<path d="M5908 8433 c7 -3 16 -2 19 1 4 3 -2 6 -13 5 -11 0 -14 -3 -6 -6z"/>
<path d="M4910 8416 c0 -2 7 -6 15 -10 8 -3 15 -1 15 4 0 6 -7 10 -15 10 -8 0
-15 -2 -15 -4z"/>
<path d="M4760 8405 c0 -7 30 -13 34 -7 3 4 -4 9 -15 9 -10 1 -19 0 -19 -2z"/>
<path d="M2829 7773 c-13 -16 -12 -17 4 -4 16 13 21 21 13 21 -2 0 -10 -8 -17
-17z"/>
<path d="M2634 7588 l-19 -23 23 19 c12 11 22 21 22 23 0 8 -8 2 -26 -19z"/>
<path d="M2880 7510 c0 -5 5 -10 10 -10 6 0 10 5 10 10 0 6 -4 10 -10 10 -5 0
-10 -4 -10 -10z"/>
<path d="M2520 7460 c-12 -16 -19 -30 -16 -30 2 0 14 14 26 30 12 17 19 30 16
30 -2 0 -14 -13 -26 -30z"/>
<path d="M2599 7383 c-13 -16 -12 -17 4 -4 9 7 17 15 17 17 0 8 -8 3 -21 -13z"/>
<path d="M2449 7373 c-13 -16 -12 -17 4 -4 9 7 17 15 17 17 0 8 -8 3 -21 -13z"/>
<path d="M2411 7327 c-13 -21 -12 -21 5 -5 10 10 16 20 13 22 -3 3 -11 -5 -18
-17z"/>
<path d="M2379 7283 c-13 -16 -12 -17 4 -4 9 7 17 15 17 17 0 8 -8 3 -21 -13z"/>
<path d="M2353 7248 c-15 -20 -25 -38 -20 -38 3 0 12 11 21 25 17 26 16 35 -1
13z"/>
<path d="M2425 7164 c-9 -15 -12 -23 -6 -20 11 7 35 46 28 46 -3 0 -12 -12
-22 -26z"/>
<path d="M2389 6963 c-13 -16 -12 -17 4 -4 9 7 17 15 17 17 0 8 -8 3 -21 -13z"/>
<path d="M2280 6940 c-6 -11 -8 -20 -6 -20 3 0 10 9 16 20 6 11 8 20 6 20 -3
0 -10 -9 -16 -20z"/>
<path d="M2152 6938 c-14 -18 -73 -138 -68 -138 3 0 22 34 44 75 39 74 44 87
24 63z"/>
<path d="M2169 6739 c-16 -34 -29 -63 -27 -65 2 -2 18 26 36 61 17 36 30 65
27 65 -3 0 -19 -27 -36 -61z"/>
<path d="M2065 6779 c-4 -6 -5 -12 -2 -15 2 -3 7 2 10 11 7 17 1 20 -8 4z"/>
<path d="M2102 6595 c-17 -37 -14 -45 4 -12 9 16 14 31 11 33 -2 2 -9 -7 -15
-21z"/>
<path d="M2143 6525 c0 -8 4 -12 9 -9 5 3 6 10 3 15 -9 13 -12 11 -12 -6z"/>
<path d="M2001 6339 c-6 -18 -11 -37 -10 -43 0 -6 7 7 15 28 8 22 12 41 10 43
-2 2 -9 -10 -15 -28z"/>
<path d="M1956 6194 c-4 -14 -5 -28 -3 -31 3 -2 8 8 11 23 4 14 5 28 3 31 -3
2 -8 -8 -11 -23z"/>
<path d="M1931 6104 c0 -11 3 -14 6 -6 3 7 2 16 -1 19 -3 4 -6 -2 -5 -13z"/>
<path d="M1921 6064 c0 -11 3 -14 6 -6 3 7 2 16 -1 19 -3 4 -6 -2 -5 -13z"/>
<path d="M8350 6051 c0 -6 4 -13 10 -16 6 -3 7 1 4 9 -7 18 -14 21 -14 7z"/>
<path d="M8401 5794 c0 -11 3 -14 6 -6 3 7 2 16 -1 19 -3 4 -6 -2 -5 -13z"/>
<path d="M8411 5754 c0 -11 3 -14 6 -6 3 7 2 16 -1 19 -3 4 -6 -2 -5 -13z"/>
<path d="M8461 5734 c0 -11 3 -14 6 -6 3 7 2 16 -1 19 -3 4 -6 -2 -5 -13z"/>
<path d="M8421 5664 c0 -11 3 -14 6 -6 3 7 2 16 -1 19 -3 4 -6 -2 -5 -13z"/>
</g>
</svg>
